<?xml version="1.0" encoding="UTF-8"?>
<svg width="220.50945mm" height="68.579285mm" viewBox="-10 -10 220.50945 68.579285" version="1.1" xmlns="http://www.w3.org/2000/svg">
  <defs>
    <clipPath clipPathUnits="userSpaceOnUse" id="clipPath574">
      <path d="M 0,1200 H 2000 V 0 H 0 Z" transform="translate(-1271.3038,-648.53032)"/>
    </clipPath>
    <clipPath clipPathUnits="userSpaceOnUse" id="clipPath576">
      <path d="M 0,1200 H 2000 V 0 H 0 Z" transform="translate(-1392.545,-563.31641)"/>
    </clipPath>
    <clipPath clipPathUnits="userSpaceOnUse" id="clipPath578">
      <path d="M 0,1200 H 2000 V 0 H 0 Z" transform="translate(-1500.2255,-563.31641)"/>
    </clipPath>
    <clipPath clipPathUnits="userSpaceOnUse" id="clipPath580">
      <path d="M 0,1200 H 2000 V 0 H 0 Z" transform="translate(2.5000001e-4)"/>
    </clipPath>
    <clipPath clipPathUnits="userSpaceOnUse" id="clipPath582">
      <path d="M 0,1200 H 2000 V 0 H 0 Z" transform="translate(-1609.7278,-536.80081)"/>
    </clipPath>
    <clipPath clipPathUnits="userSpaceOnUse" id="clipPath584">
      <path d="M 0,1200 H 2000 V 0 H 0 Z" transform="translate(-1131.6238,-537.37411)"/>
    </clipPath>
    <clipPath clipPathUnits="userSpaceOnUse" id="clipPath586">
      <path d="M 0,1200 H 2000 V 0 H 0 Z" transform="translate(-1225.5658,-532.54591)"/>
    </clipPath>
    <clipPath clipPathUnits="userSpaceOnUse" id="clipPath588">
      <path d="M 0,1200 H 2000 V 0 H 0 Z" transform="translate(-1160.9443,-607.69151)"/>
    </clipPath>
    <clipPath clipPathUnits="userSpaceOnUse" id="clipPath590">
      <path d="M 0,1200 H 2000 V 0 H 0 Z" transform="translate(-1160.9443,-607.69151)"/>
    </clipPath>
    <clipPath clipPathUnits="userSpaceOnUse" id="clipPath592">
      <path d="M 0,1200 H 2000 V 0 H 0 Z" transform="translate(-1166.0458,-605.74061)"/>
    </clipPath>
  </defs>
  <rect x="-10" y="-10" width="220.50945" height="68.579285" rx="12" ry="12" fill="white"/>
  <g transform="translate(-3.636136,-119.58054)">
    <path d="M 0,0 H -36.839 V 24.693 H 64.365 V 0 H 27.932 V -112.944 H 0 Z" style="fill:#040404;fill-opacity:1;fill-rule:nonzero;stroke:none" transform="matrix(0.33450791,0,0,-0.33450791,66.497923,129.19486)" clip-path="url(#clipPath574)"/>
    <path d="m 0,0 c 3.103,4.722 4.655,12.413 4.655,23.074 0,10.658 -1.552,18.283 -4.655,22.872 -3.105,4.586 -7.894,6.882 -14.371,6.882 -6.477,0 -11.268,-2.296 -14.37,-6.882 -3.107,-4.589 -4.655,-12.214 -4.655,-22.872 0,-10.661 1.548,-18.352 4.655,-23.074 3.102,-4.726 7.893,-7.085 14.37,-7.085 6.477,0 11.266,2.359 14.371,7.085 m -49.083,-16.294 c -7.895,9.241 -11.841,22.366 -11.841,39.368 0,16.866 3.946,29.887 11.841,39.065 7.894,9.174 19.462,13.764 34.712,13.764 15.247,0 26.819,-4.59 34.713,-13.764 7.894,-9.178 11.841,-22.199 11.841,-39.065 0,-17.002 -3.947,-30.127 -11.841,-39.368 -7.894,-9.245 -19.466,-13.865 -34.713,-13.865 -15.25,0 -26.818,4.62 -34.712,13.865" style="fill:#040404;fill-opacity:1;fill-rule:nonzero;stroke:none" transform="matrix(0.33450791,0,0,-0.33450791,107.05408,157.69959)" clip-path="url(#clipPath576)"/>
    <path d="m 0,0 c 3.103,4.722 4.655,12.413 4.655,23.074 0,10.658 -1.552,18.283 -4.655,22.872 -3.105,4.586 -7.894,6.882 -14.371,6.882 -6.477,0 -11.268,-2.296 -14.37,-6.882 -3.107,-4.589 -4.655,-12.214 -4.655,-22.872 0,-10.661 1.548,-18.352 4.655,-23.074 3.102,-4.726 7.893,-7.085 14.37,-7.085 6.477,0 11.266,2.359 14.371,7.085 m -49.083,-16.294 c -7.895,9.241 -11.841,22.366 -11.841,39.368 0,16.866 3.946,29.887 11.841,39.065 7.894,9.174 19.462,13.764 34.712,13.764 15.247,0 26.819,-4.59 34.713,-13.764 7.894,-9.178 11.841,-22.199 11.841,-39.065 0,-17.002 -3.947,-30.127 -11.841,-39.368 -7.894,-9.245 -19.466,-13.865 -34.713,-13.865 -15.25,0 -26.818,4.62 -34.712,13.865" style="fill:#040404;fill-opacity:1;fill-rule:nonzero;stroke:none" transform="matrix(0.33450791,0,0,-0.33450791,143.07406,157.69959)" clip-path="url(#clipPath578)"/>
    <path d="m 1553.458,677.272 h 27.122 V 535.585 h -27.122 z" style="fill:#040404;fill-opacity:1;fill-rule:nonzero;stroke:none" transform="matrix(0.33450791,0,0,-0.33450791,-358.76333,346.13338)" clip-path="url(#clipPath580)"/>
    <path d="m 0,0 -6.477,1.214 0.81,22.67 c 16.325,-2.16 28.2,-3.238 35.623,-3.238 4.991,0 8.938,0.537 11.841,1.619 2.9,1.078 4.351,3.102 4.351,6.072 0,2.697 -1.384,4.655 -4.148,5.87 -2.768,1.214 -7.389,2.359 -13.865,3.44 -2.429,0.269 -4.118,0.539 -5.061,0.81 -6.749,1.215 -12.28,2.732 -16.596,4.555 -4.321,1.821 -7.829,4.721 -10.526,8.703 -2.701,3.978 -4.048,9.545 -4.048,16.699 0,11.468 3.507,19.969 10.525,25.503 7.014,5.532 16.664,8.299 28.944,8.299 7.287,0 18.015,-1.284 32.183,-3.846 L 70.235,97.156 69.83,74.688 c -16.328,2.158 -28.406,3.239 -36.23,3.239 -4.589,0 -8.198,-0.475 -10.829,-1.417 -2.631,-0.946 -3.947,-2.767 -3.947,-5.465 0,-2.834 1.347,-4.826 4.048,-5.971 2.697,-1.148 7.084,-2.261 13.156,-3.34 l 7.084,-1.214 c 10.794,-2.161 18.487,-5.364 23.076,-9.615 4.584,-4.25 6.881,-11.1 6.881,-20.544 0,-11.607 -3.308,-20.174 -9.918,-25.706 C 56.538,-0.88 46.352,-3.644 32.588,-3.644 23.682,-3.644 12.818,-2.43 0,0" style="fill:#040404;fill-opacity:1;fill-rule:nonzero;stroke:none" transform="matrix(0.33450791,0,0,-0.33450791,179.70343,166.56926)" clip-path="url(#clipPath582)"/>
    <path d="M 0,0 H -35.851 L 8.939,44.788 23.057,30.67 c 1.269,-1.269 2.538,-2.538 3.808,-3.808 z M 30.905,28.209 C 24.033,35.082 17.16,41.956 10.286,48.83 L 8.939,50.177 6.245,47.483 -45.05,-3.813 H 1.579 l 30.673,30.675 z" style="fill:#000000;fill-opacity:1;fill-rule:nonzero;stroke:#000000;stroke-opacity:1" transform="matrix(0.33450791,0,0,-0.33450791,19.773856,166.3775)" clip-path="url(#clipPath584)"/>
    <path d="m 0,0 h -0.002 l -28.469,0.01 c -4.99,10e-4 -9.682,1.945 -13.211,5.475 l -16.966,16.964 3.14,3.143 16.968,-16.965 c 2.69,-2.691 6.267,-4.173 10.071,-4.174 L 0,4.443 h 0.001 c 1.528,0 2.131,1.165 2.278,1.523 0.149,0.357 0.547,1.606 -0.533,2.687 -14.893,14.915 -23.074,23.097 -37.982,37.98 l 3.138,3.144 C -18.187,34.893 -10.005,26.709 4.89,11.793 6.901,9.78 7.475,6.895 6.384,4.265 5.294,1.634 2.848,0 0,0" style="fill:#000000;fill-opacity:1;fill-rule:nonzero;stroke:#061c27;stroke-opacity:1" transform="matrix(0.33450791,0,0,-0.33450791,51.198199,167.99257)" clip-path="url(#clipPath586)"/>
    <path d="m 0,0 c 6.871,-6.874 13.745,-13.748 20.619,-20.621 l 1.347,-1.347 2.693,2.694 51.296,51.295 H 39.69 c -6.636,0 -13.001,-2.636 -17.693,-7.329 L -1.347,1.347 Z" style="fill:#040404;fill-opacity:1;fill-rule:nonzero;stroke:none" transform="matrix(0.33450791,0,0,-0.33450791,29.581794,142.85576)" clip-path="url(#clipPath588)"/>
    <path d="m 0,0 c 6.871,-6.874 13.745,-13.748 20.619,-20.621 l 1.347,-1.347 2.693,2.694 51.296,51.295 H 39.69 c -6.636,0 -13.001,-2.636 -17.693,-7.329 L -1.347,1.347 Z" style="fill:#040404;fill-opacity:1;fill-rule:nonzero;stroke:none" transform="matrix(0.33450791,0,0,-0.33450791,29.581794,142.85576)" clip-path="url(#clipPath590)"/>
    <path d="m 0,0 -23.344,23.346 c -4.692,4.692 -11.057,7.328 -17.693,7.328 h -36.265 l 51.296,-51.296" style="fill:none;stroke:#000000;stroke-width:4.443;stroke-linecap:butt;stroke-linejoin:miter;stroke-miterlimit:10;stroke-dasharray:none;stroke-opacity:1" transform="matrix(0.33450791,0,0,-0.33450791,31.288291,143.50836)" clip-path="url(#clipPath592)"/>
  </g>
</svg>
